<svg xmlns="http://www.w3.org/2000/svg" viewBox="0 0 64 64" role="img" aria-label="Cactus logo">
  <defs>
    <linearGradient id="bg" x1="0" y1="0" x2="1" y2="1">
      <stop offset="0" stop-color="#F8E6C9"/>
      <stop offset="1" stop-color="#F2C077"/>
    </linearGradient>
    <linearGradient id="cactus" x1="0" y1="0" x2="0" y2="1">
      <stop offset="0" stop-color="#44B36B"/>
      <stop offset="1" stop-color="#2E8A4E"/>
    </linearGradient>
  </defs>
  <rect x="2" y="2" width="60" height="60" rx="14" fill="url(#bg)"/>
  <ellipse cx="32" cy="54" rx="20" ry="5" fill="#D8A15C" opacity="0.55"/>
  <path d="M26 48V25c0-3 2.2-5 5-5h2c2.8 0 5 2 5 5v23z" fill="url(#cactus)"/>
  <path d="M23 37h-2c-3 0-5-2.2-5-5v-3c0-2.8 2-5 5-5h2z" fill="url(#cactus)"/>
  <path d="M41 33h2c3 0 5-2.2 5-5v-5c0-2.8-2-5-5-5h-2z" fill="url(#cactus)"/>
  <circle cx="31" cy="30" r="0.9" fill="#EAF8EE"/>
  <circle cx="35" cy="35" r="0.9" fill="#EAF8EE"/>
  <circle cx="28" cy="40" r="0.9" fill="#EAF8EE"/>
  <rect x="22" y="47" width="20" height="6.5" rx="2.5" fill="#A5663A"/>
  <rect x="21" y="47" width="22" height="1.5" rx="0.7" fill="#C98553" opacity="0.8"/>
</svg>
