<svg width="1200" height="720" viewBox="0 0 1200 720" fill="none" xmlns="http://www.w3.org/2000/svg" role="img" aria-labelledby="title desc">
  <title id="title">BRFSS chronic disease burden dashboard preview</title>
  <desc id="desc">Stylized dashboard preview with filters, summary cards, line chart, bar chart, and county-level disease burden list.</desc>
  <rect width="1200" height="720" rx="32" fill="#EAF4F2"/>
  <rect x="24" y="24" width="1152" height="672" rx="28" fill="#0F1E2A"/>
  <rect x="52" y="56" width="250" height="608" rx="24" fill="#132A39"/>
  <rect x="330" y="56" width="818" height="90" rx="24" fill="#132A39"/>
  <rect x="330" y="170" width="818" height="210" rx="24" fill="#132A39"/>
  <rect x="330" y="404" width="396" height="260" rx="24" fill="#132A39"/>
  <rect x="752" y="404" width="396" height="260" rx="24" fill="#132A39"/>
  <text x="82" y="110" fill="#F4FBFF" font-family="Arial, sans-serif" font-size="28" font-weight="700">BRFSS 2024</text>
  <text x="82" y="142" fill="#9AB5C3" font-family="Arial, sans-serif" font-size="18">Chronic Disease Burden</text>
  <rect x="82" y="186" width="190" height="44" rx="12" fill="#1B3A4E"/>
  <rect x="82" y="246" width="190" height="44" rx="12" fill="#1B3A4E"/>
  <rect x="82" y="306" width="190" height="44" rx="12" fill="#1B3A4E"/>
  <rect x="82" y="366" width="190" height="44" rx="12" fill="#1B3A4E"/>
  <text x="98" y="214" fill="#D9E9F2" font-family="Arial, sans-serif" font-size="16">Dataset: CDC BRFSS</text>
  <text x="98" y="274" fill="#D9E9F2" font-family="Arial, sans-serif" font-size="16">View: Infection trends</text>
  <text x="98" y="334" fill="#D9E9F2" font-family="Arial, sans-serif" font-size="16">Split: Demographics</text>
  <text x="98" y="394" fill="#D9E9F2" font-family="Arial, sans-serif" font-size="16">Period: 2024 summary</text>
  <text x="354" y="104" fill="#F4FBFF" font-family="Arial, sans-serif" font-size="30" font-weight="700">Dashboard Snapshot</text>
  <text x="354" y="132" fill="#98B1BE" font-family="Arial, sans-serif" font-size="16">Trend analysis, population insights, and action-oriented public health summary</text>
  <rect x="354" y="198" width="178" height="132" rx="20" fill="#10384A"/>
  <rect x="550" y="198" width="178" height="132" rx="20" fill="#2A5B3C"/>
  <rect x="746" y="198" width="178" height="132" rx="20" fill="#5F4625"/>
  <rect x="942" y="198" width="178" height="132" rx="20" fill="#214E67"/>
  <text x="378" y="238" fill="#9DD7F0" font-family="Arial, sans-serif" font-size="15">Cases Reviewed</text>
  <text x="378" y="286" fill="#F4FBFF" font-family="Arial, sans-serif" font-size="34" font-weight="700">18.4K</text>
  <text x="574" y="238" fill="#BDE3C6" font-family="Arial, sans-serif" font-size="15">High-Risk Segments</text>
  <text x="574" y="286" fill="#F4FBFF" font-family="Arial, sans-serif" font-size="34" font-weight="700">7</text>
  <text x="770" y="238" fill="#FFD3A2" font-family="Arial, sans-serif" font-size="15">Trend Flags</text>
  <text x="770" y="286" fill="#F4FBFF" font-family="Arial, sans-serif" font-size="34" font-weight="700">12</text>
  <text x="966" y="238" fill="#A7D0EA" font-family="Arial, sans-serif" font-size="15">Report Sections</text>
  <text x="966" y="286" fill="#F4FBFF" font-family="Arial, sans-serif" font-size="34" font-weight="700">5</text>
  <text x="358" y="444" fill="#F4FBFF" font-family="Arial, sans-serif" font-size="22" font-weight="700">Trend by Period</text>
  <text x="780" y="444" fill="#F4FBFF" font-family="Arial, sans-serif" font-size="22" font-weight="700">Population Insight Notes</text>
  <path d="M366 610L430 572L494 585L558 520L622 534L686 478" stroke="#59A96A" stroke-width="10" stroke-linecap="round" stroke-linejoin="round"/>
  <path d="M366 578L430 548L494 556L558 508L622 516L686 470" stroke="#4A90E2" stroke-width="6" stroke-linecap="round" stroke-linejoin="round" opacity="0.8"/>
  <line x1="366" y1="626" x2="690" y2="626" stroke="#33505F" stroke-width="3"/>
  <line x1="366" y1="470" x2="366" y2="626" stroke="#33505F" stroke-width="3"/>
  <rect x="782" y="474" width="338" height="24" rx="12" fill="#1C3C4D"/>
  <rect x="782" y="518" width="284" height="24" rx="12" fill="#295E42"/>
  <rect x="782" y="562" width="318" height="24" rx="12" fill="#1C3C4D"/>
  <rect x="782" y="606" width="242" height="24" rx="12" fill="#5F4625"/>
  <text x="798" y="491" fill="#DDEAF2" font-family="Arial, sans-serif" font-size="14">Demographic segmentation</text>
  <text x="798" y="535" fill="#E3F3E6" font-family="Arial, sans-serif" font-size="14">Seasonal concentration windows</text>
  <text x="798" y="579" fill="#DDEAF2" font-family="Arial, sans-serif" font-size="14">Data limitations and confidence notes</text>
  <text x="798" y="623" fill="#FFE5C8" font-family="Arial, sans-serif" font-size="14">Stakeholder action recommendations</text>
</svg>
