<svg width="1200" height="675" viewBox="0 0 1200 675" fill="none" xmlns="http://www.w3.org/2000/svg" role="img" aria-labelledby="title desc">
  <title id="title">Crossing Cafe menu system</title>
  <desc id="desc">Tablet style menu, cart, and order summary modules.</desc>
  <rect width="1200" height="675" fill="#131D1A"/>
  <rect x="84" y="60" width="1032" height="555" rx="26" fill="#1F2D28" stroke="#395248" stroke-width="2"/>

  <rect x="136" y="112" width="520" height="451" rx="16" fill="#F6F5F1"/>
  <rect x="688" y="112" width="376" height="451" rx="16" fill="#F6F5F1"/>

  <rect x="176" y="160" width="180" height="30" rx="8" fill="#E5E2D8"/>
  <rect x="176" y="206" width="440" height="78" rx="10" fill="#EFEADF"/>
  <rect x="176" y="300" width="440" height="78" rx="10" fill="#EFEADF"/>
  <rect x="176" y="394" width="440" height="78" rx="10" fill="#EFEADF"/>

  <rect x="728" y="160" width="296" height="220" rx="12" fill="#EFEADF"/>
  <rect x="728" y="400" width="296" height="28" rx="8" fill="#D7D0C0"/>
  <rect x="728" y="442" width="190" height="28" rx="8" fill="#D7D0C0"/>
  <rect x="728" y="500" width="296" height="34" rx="10" fill="#59A96A"/>

  <circle cx="233" cy="245" r="12" fill="#F19A3E"/>
  <circle cx="233" cy="339" r="12" fill="#F19A3E"/>
  <circle cx="233" cy="433" r="12" fill="#F19A3E"/>

  <text x="136" y="92" fill="#EEF2F0" font-family="'Plus Jakarta Sans', Arial, sans-serif" font-size="28" font-weight="700">Crossing Cafe</text>
  <text x="136" y="116" fill="#AAB9B2" font-family="'Plus Jakarta Sans', Arial, sans-serif" font-size="16">Menu discovery, ordering clarity, and persistence</text>
</svg>
