<svg width="1200" height="675" viewBox="0 0 1200 675" fill="none" xmlns="http://www.w3.org/2000/svg" role="img" aria-labelledby="title desc">
  <title id="title">CURide rider and driver flow</title>
  <desc id="desc">Interface cards showing booking, route, and trust indicators.</desc>
  <rect width="1200" height="675" fill="#111A24"/>
  <rect x="74" y="68" width="1052" height="539" rx="28" fill="#1A2734" stroke="#2E4356" stroke-width="2"/>

  <rect x="120" y="128" width="300" height="420" rx="18" fill="#F5F7FA"/>
  <rect x="450" y="128" width="300" height="420" rx="18" fill="#F5F7FA"/>
  <rect x="780" y="128" width="300" height="420" rx="18" fill="#F5F7FA"/>

  <rect x="152" y="172" width="236" height="26" rx="6" fill="#D9E1E8"/>
  <rect x="152" y="210" width="190" height="20" rx="6" fill="#E8EDF2"/>
  <rect x="152" y="250" width="236" height="126" rx="10" fill="#DDE7EF"/>
  <circle cx="188" cy="430" r="20" fill="#59A96A"/>
  <circle cx="244" cy="430" r="20" fill="#F19A3E"/>
  <circle cx="300" cy="430" r="20" fill="#DD403A"/>

  <polyline points="430,338 442,338 442,338 438,334" stroke="#6D879C" stroke-width="4" stroke-linecap="round" stroke-linejoin="round"/>
  <polyline points="760,338 772,338 772,338 768,334" stroke="#6D879C" stroke-width="4" stroke-linecap="round" stroke-linejoin="round"/>

  <rect x="482" y="172" width="236" height="190" rx="10" fill="#DDE7EF"/>
  <rect x="482" y="390" width="236" height="18" rx="6" fill="#E8EDF2"/>
  <rect x="482" y="420" width="190" height="18" rx="6" fill="#E8EDF2"/>

  <rect x="812" y="172" width="236" height="24" rx="6" fill="#D9E1E8"/>
  <rect x="812" y="210" width="120" height="96" rx="10" fill="#CFE2D4"/>
  <rect x="946" y="210" width="102" height="96" rx="10" fill="#F8E0C8"/>
  <rect x="812" y="330" width="236" height="118" rx="10" fill="#E3E8EE"/>

  <text x="120" y="98" fill="#EAF0F3" font-family="'Plus Jakarta Sans', Arial, sans-serif" font-size="28" font-weight="700">CURide</text>
  <text x="120" y="120" fill="#9AAAB7" font-family="'Plus Jakarta Sans', Arial, sans-serif" font-size="16">Community ridesharing trust and booking workflow</text>
</svg>
