<svg width="1200" height="675" viewBox="0 0 1200 675" fill="none" xmlns="http://www.w3.org/2000/svg" role="img" aria-labelledby="title desc">
  <title id="title">NBA shot trends visualization</title>
  <desc id="desc">Half-court shot map with density clusters and trend chart.</desc>
  <rect width="1200" height="675" fill="#11161F"/>
  <rect x="74" y="66" width="1052" height="543" rx="26" fill="#1A2330" stroke="#2F4155" stroke-width="2"/>

  <rect x="116" y="116" width="690" height="443" rx="16" fill="#F3F7FB"/>
  <rect x="836" y="116" width="250" height="443" rx="16" fill="#EAF0F6"/>

  <path d="M221 484C221 384 302 303 402 303C502 303 583 384 583 484" stroke="#C8D5E3" stroke-width="4"/>
  <path d="M402 222V484" stroke="#C8D5E3" stroke-width="4"/>
  <circle cx="402" cy="484" r="8" fill="#59A96A"/>

  <circle cx="298" cy="365" r="10" fill="#DD403A" fill-opacity="0.55"/>
  <circle cx="339" cy="342" r="9" fill="#DD403A" fill-opacity="0.5"/>
  <circle cx="360" cy="378" r="10" fill="#DD403A" fill-opacity="0.52"/>
  <circle cx="455" cy="331" r="9" fill="#DD403A" fill-opacity="0.45"/>
  <circle cx="486" cy="360" r="10" fill="#DD403A" fill-opacity="0.58"/>
  <circle cx="540" cy="406" r="9" fill="#DD403A" fill-opacity="0.5"/>
  <circle cx="270" cy="431" r="8" fill="#F19A3E" fill-opacity="0.65"/>
  <circle cx="556" cy="446" r="8" fill="#F19A3E" fill-opacity="0.65"/>

  <rect x="872" y="166" width="178" height="14" rx="7" fill="#C8D5E3"/>
  <rect x="872" y="198" width="140" height="12" rx="6" fill="#D5DFEA"/>
  <rect x="872" y="236" width="178" height="262" rx="10" fill="#DEE7F1"/>
  <polyline points="890,448 930,396 968,378 1008,326 1042,284" stroke="#59A96A" stroke-width="4" fill="none" stroke-linecap="round" stroke-linejoin="round"/>

  <text x="116" y="94" fill="#EAF0F3" font-family="'Plus Jakarta Sans', Arial, sans-serif" font-size="28" font-weight="700">NBA Shot Trends</text>
  <text x="116" y="118" fill="#9FB0C2" font-family="'Plus Jakarta Sans', Arial, sans-serif" font-size="16">3D court analytics and modern shot selection shifts</text>
</svg>
