<svg width="1200" height="675" viewBox="0 0 1200 675" fill="none" xmlns="http://www.w3.org/2000/svg" role="img" aria-labelledby="title desc">
  <title id="title">Storybot automation pipeline</title>
  <desc id="desc">Node to Python to FFmpeg pipeline with processing stages.</desc>
  <rect width="1200" height="675" fill="#0F1720"/>
  <rect x="72" y="66" width="1056" height="543" rx="26" fill="#172531" stroke="#2E455B" stroke-width="2"/>

  <rect x="118" y="222" width="180" height="220" rx="14" fill="#F4F7FB"/>
  <rect x="334" y="222" width="180" height="220" rx="14" fill="#F4F7FB"/>
  <rect x="550" y="222" width="180" height="220" rx="14" fill="#F4F7FB"/>
  <rect x="766" y="222" width="180" height="220" rx="14" fill="#F4F7FB"/>
  <rect x="982" y="222" width="100" height="220" rx="14" fill="#F4F7FB"/>

  <rect x="146" y="260" width="124" height="16" rx="6" fill="#D4DEEA"/>
  <rect x="362" y="260" width="124" height="16" rx="6" fill="#D4DEEA"/>
  <rect x="578" y="260" width="124" height="16" rx="6" fill="#D4DEEA"/>
  <rect x="794" y="260" width="124" height="16" rx="6" fill="#D4DEEA"/>
  <rect x="995" y="260" width="74" height="16" rx="6" fill="#D4DEEA"/>

  <rect x="146" y="300" width="124" height="120" rx="10" fill="#E3EAF3"/>
  <rect x="362" y="300" width="124" height="120" rx="10" fill="#E3EAF3"/>
  <rect x="578" y="300" width="124" height="120" rx="10" fill="#E3EAF3"/>
  <rect x="794" y="300" width="124" height="120" rx="10" fill="#E3EAF3"/>
  <rect x="995" y="300" width="74" height="120" rx="10" fill="#E3EAF3"/>

  <path d="M304 333H326" stroke="#86A0B7" stroke-width="4" stroke-linecap="round"/>
  <path d="M520 333H542" stroke="#86A0B7" stroke-width="4" stroke-linecap="round"/>
  <path d="M736 333H758" stroke="#86A0B7" stroke-width="4" stroke-linecap="round"/>
  <path d="M952 333H974" stroke="#86A0B7" stroke-width="4" stroke-linecap="round"/>

  <text x="118" y="100" fill="#EAF0F3" font-family="'Plus Jakarta Sans', Arial, sans-serif" font-size="28" font-weight="700">Storybot</text>
  <text x="118" y="126" fill="#9FB0C2" font-family="'Plus Jakarta Sans', Arial, sans-serif" font-size="16">Reddit ingestion to voiceover, captions, and rendered short video</text>
</svg>
